<svg xmlns="http://www.w3.org/2000/svg" width="25" height="30" fill="none" viewBox="0 0 25 30"><path fill="#fff" d="M16.918.68c.237-.286.558-.446.893-.446.334 0 .655.16.892.445l5.049 6.088c.236.286.369.673.369 1.077 0 .403-.133.79-.37 1.076L7.343 28.707c-.236.285-.557.446-.892.446H1.402c-.334 0-.655-.16-.892-.446a1.694 1.694 0 0 1-.37-1.076v-6.089c0-.403.133-.79.37-1.076l12.622-15.22L16.918.678Zm-2.894 7.794L2.664 22.172v3.937H5.93l11.359-13.7-3.264-3.935Zm5.049 1.784 2.001-2.414-3.264-3.936-2.001 2.414 3.264 3.936Z"/></svg>